REM DIRINDEX 1\2\6,1\2\7,1\2\8,1\2\9,1\3\10,1\3\11,1\4\12,1\4\13,1\4\14,1\5\15,1\5\16,1\5\17
REM DIRNAME cjc020,folder01,folder02,folder03,folder04,folder05,folder06,folder07,folder08,folder09,folder10,folder11,folder12,folder13,folder14,folder15,folder16
TITLE ""
FILE "1900_3_036 sec06_0580_0600.mp3" MP3
  TRACK 01 AUDIO
    TITLE "0:"
    INDEX 01 00:00:00
  TRACK 02 AUDIO
    TITLE "17:cjc020_7131"
    INDEX 01 00:00:19
  TRACK 03 AUDIO
    TITLE "0:"
    INDEX 01 00:01:36
  TRACK 04 AUDIO
    TITLE "16:cjc020_7132"
    INDEX 01 00:01:40
  TRACK 05 AUDIO
    TITLE "0:"
    INDEX 01 00:02:49
  TRACK 06 AUDIO
    TITLE "17:cjc020_7133"
    INDEX 01 00:03:33
  TRACK 07 AUDIO
    TITLE "0:"
    INDEX 01 00:04:50
  TRACK 08 AUDIO
    TITLE "16:cjc020_7134"
    INDEX 01 00:04:56
  TRACK 09 AUDIO
    TITLE "0:"
    INDEX 01 00:06:02
  TRACK 10 AUDIO
    TITLE "17:cjc020_7135"
    INDEX 01 00:06:59
  TRACK 11 AUDIO
    TITLE "0:"
    INDEX 01 00:08:05
  TRACK 12 AUDIO
    TITLE "16:cjc020_7136"
    INDEX 01 00:08:11
  TRACK 13 AUDIO
    TITLE "0:"
    INDEX 01 00:09:24
  TRACK 14 AUDIO
    TITLE "17:cjc020_7137"
    INDEX 01 00:10:12
  TRACK 15 AUDIO
    TITLE "0:"
    INDEX 01 00:11:17
  TRACK 16 AUDIO
    TITLE "16:cjc020_7138"
    INDEX 01 00:11:25
  TRACK 17 AUDIO
    TITLE "0:"
    INDEX 01 00:12:44
  TRACK 18 AUDIO
    TITLE "17:cjc020_7139"
    INDEX 01 00:13:30
  TRACK 19 AUDIO
    TITLE "0:"
    INDEX 01 00:14:35
  TRACK 20 AUDIO
    TITLE "16:cjc020_7140"
    INDEX 01 00:14:43
  TRACK 21 AUDIO
    TITLE "0:"
    INDEX 01 00:15:50
  TRACK 22 AUDIO
    TITLE "17:cjc020_7141"
    INDEX 01 00:16:32
  TRACK 23 AUDIO
    TITLE "0:"
    INDEX 01 00:18:01
  TRACK 24 AUDIO
    TITLE "16:cjc020_7142"
    INDEX 01 00:18:05
  TRACK 25 AUDIO
    TITLE "0:"
    INDEX 01 00:19:24
  TRACK 26 AUDIO
    TITLE "17:cjc020_7143"
    INDEX 01 00:20:08
  TRACK 27 AUDIO
    TITLE "0:"
    INDEX 01 00:21:23
  TRACK 28 AUDIO
    TITLE "16:cjc020_7144"
    INDEX 01 00:21:29
  TRACK 29 AUDIO
    TITLE "0:"
    INDEX 01 00:22:60
  TRACK 30 AUDIO
    TITLE "17:cjc020_7145"
    INDEX 01 00:23:44
  TRACK 31 AUDIO
    TITLE "0:"
    INDEX 01 00:24:59
  TRACK 32 AUDIO
    TITLE "16:cjc020_7146"
    INDEX 01 00:24:67
  TRACK 33 AUDIO
    TITLE "0:"
    INDEX 01 00:26:28
  TRACK 34 AUDIO
    TITLE "17:cjc020_7147"
    INDEX 01 00:27:08
  TRACK 35 AUDIO
    TITLE "0:"
    INDEX 01 00:28:45
  TRACK 36 AUDIO
    TITLE "16:cjc020_7148"
    INDEX 01 00:28:49
  TRACK 37 AUDIO
    TITLE "0:"
    INDEX 01 00:29:66
  TRACK 38 AUDIO
    TITLE "17:cjc020_7149"
    INDEX 01 00:30:50
  TRACK 39 AUDIO
    TITLE "0:"
    INDEX 01 00:32:23
  TRACK 40 AUDIO
    TITLE "16:cjc020_7150"
    INDEX 01 00:32:29
  TRACK 41 AUDIO
    TITLE "0:"
    INDEX 01 00:33:54
  TRACK 42 AUDIO
    TITLE "17:cjc020_7151"
    INDEX 01 00:34:38
  TRACK 43 AUDIO
    TITLE "0:"
    INDEX 01 00:35:45
  TRACK 44 AUDIO
    TITLE "16:cjc020_7152"
    INDEX 01 00:35:47
  TRACK 45 AUDIO
    TITLE "0:"
    INDEX 01 00:36:66
  TRACK 46 AUDIO
    TITLE "17:cjc020_7153"
    INDEX 01 00:37:48
  TRACK 47 AUDIO
    TITLE "0:"
    INDEX 01 00:38:45
  TRACK 48 AUDIO
    TITLE "16:cjc020_7154"
    INDEX 01 00:38:51
  TRACK 49 AUDIO
    TITLE "0:"
    INDEX 01 00:39:66
  TRACK 50 AUDIO
    TITLE "17:cjc020_7155"
    INDEX 01 00:40:48
  TRACK 51 AUDIO
    TITLE "0:"
    INDEX 01 00:42:63
  TRACK 52 AUDIO
    TITLE "16:cjc020_7156"
    INDEX 01 00:42:72
  TRACK 53 AUDIO
    TITLE "0:"
    INDEX 01 00:44:18
  TRACK 54 AUDIO
    TITLE "17:cjc020_7157"
    INDEX 01 00:44:73
  TRACK 55 AUDIO
    TITLE "0:"
    INDEX 01 00:46:00
  TRACK 56 AUDIO
    TITLE "16:cjc020_7158"
    INDEX 01 00:46:11
  TRACK 57 AUDIO
    TITLE "0:"
    INDEX 01 00:47:03
  TRACK 58 AUDIO
    TITLE "17:cjc020_7159"
    INDEX 01 00:47:62
  TRACK 59 AUDIO
    TITLE "0:"
    INDEX 01 00:49:10
  TRACK 60 AUDIO
    TITLE "16:cjc020_7160"
    INDEX 01 00:49:12
  TRACK 61 AUDIO
    TITLE "0:"
    INDEX 01 00:50:35
  TRACK 62 AUDIO
    TITLE "17:cjc020_7161"
    INDEX 01 00:51:09
  TRACK 63 AUDIO
    TITLE "0:"
    INDEX 01 00:52:22
  TRACK 64 AUDIO
    TITLE "16:cjc020_7162"
    INDEX 01 00:52:24
  TRACK 65 AUDIO
    TITLE "0:"
    INDEX 01 00:53:45
  TRACK 66 AUDIO
    TITLE "17:cjc020_7163"
    INDEX 01 00:54:27
  TRACK 67 AUDIO
    TITLE "0:"
    INDEX 01 00:55:61
  TRACK 68 AUDIO
    TITLE "16:cjc020_7164"
    INDEX 01 00:55:71
  TRACK 69 AUDIO
    TITLE "0:"
    INDEX 01 00:57:11
  TRACK 70 AUDIO
    TITLE "17:cjc020_7165"
    INDEX 01 00:57:72
  TRACK 71 AUDIO
    TITLE "0:"
    INDEX 01 00:59:06
  TRACK 72 AUDIO
    TITLE "16:cjc020_7166"
    INDEX 01 00:59:12
  TRACK 73 AUDIO
    TITLE "0:"
    INDEX 01 01:00:12
  TRACK 74 AUDIO
    TITLE "17:cjc020_7167"
    INDEX 01 01:00:72
  TRACK 75 AUDIO
    TITLE "0:"
    INDEX 01 01:02:10
  TRACK 76 AUDIO
    TITLE "16:cjc020_7168"
    INDEX 01 01:02:14
  TRACK 77 AUDIO
    TITLE "0:"
    INDEX 01 01:03:39
  TRACK 78 AUDIO
    TITLE "17:cjc020_7169"
    INDEX 01 01:04:21
  TRACK 79 AUDIO
    TITLE "0:"
    INDEX 01 01:05:56
  TRACK 80 AUDIO
    TITLE "16:cjc020_7170"
    INDEX 01 01:05:60
  TRACK 81 AUDIO
    TITLE "0:"
    INDEX 01 01:06:69
  TRACK 82 AUDIO
    TITLE "17:cjc020_7171"
    INDEX 01 01:07:53
  TRACK 83 AUDIO
    TITLE "0:"
    INDEX 01 01:08:60
  TRACK 84 AUDIO
    TITLE "16:cjc020_7172"
    INDEX 01 01:08:68
  TRACK 85 AUDIO
    TITLE "0:"
    INDEX 01 01:10:08
